<svg width="562" height="461" viewBox="0 0 562 461" fill="none" xmlns="http://www.w3.org/2000/svg">
<path fill-rule="evenodd" clip-rule="evenodd" d="M395.208 104.972V30.5804H368.034V104.972H395.208ZM391.71 2.86853C388.93 1.34393 385.612 0.581635 381.755 0.581635C377.809 0.581635 374.446 1.34393 371.666 2.86853C368.886 4.39313 367.496 7.44234 367.496 12.0161C367.496 16.4106 368.886 19.415 371.666 21.0292C374.446 22.5538 377.809 23.3161 381.755 23.3161C385.612 23.3161 388.93 22.5538 391.71 21.0292C394.58 19.415 396.015 16.4106 396.015 12.0161C396.015 7.44234 394.58 4.39313 391.71 2.86853ZM456.74 29.2352C463.914 29.2352 469.788 31.3876 474.362 35.6923C479.026 39.9971 481.357 46.9475 481.357 56.5435V104.972H454.184V64.3459C454.184 59.4134 453.646 55.6915 452.569 53.1804C451.493 50.6693 449.699 49.4138 447.188 49.4138C443.332 49.4138 440.776 51.3868 439.521 55.3328C438.265 59.2788 437.637 64.9737 437.637 72.4173V104.972H410.463V30.5804H430.776L434.543 40.4007H435.35C436.875 38.0689 438.624 36.0959 440.597 34.4816C442.57 32.7777 444.857 31.4773 447.457 30.5804C450.148 29.6836 453.242 29.2352 456.74 29.2352ZM533.515 29.2352C542.214 29.2352 549.03 31.5669 553.962 36.2304C558.985 40.8939 561.496 47.5304 561.496 56.1399V104.972H542.797L537.551 95.1518H537.012C535.039 97.7526 533.022 99.905 530.959 101.609C528.896 103.223 526.52 104.389 523.829 105.107C521.139 105.914 517.865 106.317 514.009 106.317C509.973 106.317 506.341 105.465 503.112 103.761C499.884 101.968 497.328 99.3221 495.445 95.8245C493.651 92.2372 492.754 87.7082 492.754 82.2376C492.754 74.2558 495.355 68.3368 500.557 64.4804C505.758 60.5344 513.157 58.382 522.753 58.0233L534.188 57.6197V56.5435C534.188 53.2253 533.515 50.8935 532.17 49.5483C530.914 48.1134 529.165 47.3959 526.923 47.3959C524.502 47.3959 521.542 47.934 518.045 49.0102C514.547 49.9967 511.049 51.2971 507.552 52.9114L500.153 35.9614C504.458 33.7193 509.301 32.0602 514.682 30.984C520.152 29.8181 526.43 29.2352 533.515 29.2352ZM529.883 72.0137C526.385 72.1931 523.874 73.0451 522.349 74.5697C520.914 76.0046 520.197 78.0673 520.197 80.7578C520.197 83.2689 520.735 85.1522 521.811 86.4078C522.887 87.5737 524.278 88.1566 525.982 88.1566C528.224 88.1566 530.197 87.1701 531.901 85.1971C533.605 83.2241 534.457 80.6681 534.457 77.5292V71.7447L529.883 72.0137ZM351.727 29.2352C353.252 29.2352 354.776 29.3249 356.301 29.5042C357.915 29.6836 359.036 29.863 359.664 30.0423L357.108 54.2566C356.211 54.0772 355.09 53.8979 353.745 53.7185C352.489 53.5392 350.382 53.4495 347.422 53.4495C346.436 53.4495 345.225 53.6288 343.79 53.9876C342.355 54.2566 340.92 54.8844 339.485 55.8709C338.14 56.8574 336.974 58.3372 335.988 60.3102C335.091 62.2832 334.642 64.9737 334.642 68.3816V104.972H307.469V30.5804H327.513L331.818 42.4185H333.163C334.418 39.9971 336.033 37.7999 338.006 35.8269C339.979 33.7642 342.131 32.1499 344.463 30.984C346.884 29.8181 349.306 29.2352 351.727 29.2352ZM278.852 33.0019C273.74 30.4908 267.686 29.2352 260.691 29.2352C253.606 29.2352 247.373 30.6253 241.992 33.4054C236.701 36.1856 232.531 40.4455 229.482 46.1852C226.522 51.9249 225.042 59.2788 225.042 68.2471C225.042 77.036 226.702 84.2554 230.02 89.9054C233.338 95.5554 237.822 99.7256 243.472 102.416C249.122 105.017 255.49 106.317 262.575 106.317C269.121 106.317 274.457 105.869 278.583 104.972C282.798 104.075 286.565 102.685 289.883 100.802V82.3721C286.027 84.3451 282.26 85.78 278.583 86.6768C274.996 87.5737 271.005 88.0221 266.61 88.0221C261.947 88.0221 258.449 86.7665 256.117 84.2554C253.875 81.7443 252.665 78.5606 252.485 74.7042H294.726V63.2697C294.726 55.6467 293.336 49.3241 290.555 44.3019C287.865 39.2796 283.964 35.513 278.852 33.0019ZM255.848 49.5483C257.463 47.665 259.48 46.7233 261.902 46.7233C263.696 46.7233 265.22 47.2614 266.476 48.3376C267.731 49.4138 268.718 50.8487 269.435 52.6423C270.153 54.3463 270.511 56.3193 270.511 58.5614H253.023C253.292 54.436 254.234 51.4316 255.848 49.5483ZM204.556 86.0042C206.798 86.0042 208.771 85.78 210.475 85.3316C212.179 84.7935 214.017 84.1657 215.99 83.4482V102.147C213.031 103.313 210.071 104.299 207.112 105.107C204.242 105.914 200.251 106.317 195.139 106.317C190.386 106.317 186.216 105.555 182.629 104.03C179.131 102.506 176.396 99.905 174.423 96.228C172.539 92.4613 171.598 87.2149 171.598 80.4887V49.8173H163.392V39.3245L174.288 31.253L181.014 15.6483H198.906V30.5804H214.914V49.8173H198.906V78.7399C198.906 81.1613 199.354 82.9998 200.251 84.2554C201.238 85.4213 202.673 86.0042 204.556 86.0042ZM145.136 36.2304C140.204 31.5669 133.388 29.2352 124.689 29.2352C117.604 29.2352 111.326 29.8181 105.855 30.984C100.474 32.0602 95.6316 33.7193 91.3269 35.9614L98.7257 52.9114C102.223 51.2971 105.721 49.9967 109.219 49.0102C112.716 47.934 115.676 47.3959 118.097 47.3959C120.339 47.3959 122.088 48.1134 123.343 49.5483C124.689 50.8935 125.361 53.2253 125.361 56.5435V57.6197L113.927 58.0233C104.331 58.382 96.932 60.5344 91.7304 64.4804C86.5288 68.3368 83.928 74.2558 83.928 82.2376C83.928 87.7082 84.8249 92.2372 86.6185 95.8245C88.5018 99.3221 91.0578 101.968 94.2864 103.761C97.5149 105.465 101.147 106.317 105.183 106.317C109.039 106.317 112.313 105.914 115.003 105.107C117.694 104.389 120.07 103.223 122.133 101.609C124.195 99.905 126.213 97.7526 128.186 95.1518H128.724L133.971 104.972H152.67V56.1399C152.67 47.5304 150.159 40.8939 145.136 36.2304ZM113.523 74.5697C115.048 73.0451 117.559 72.1931 121.057 72.0137L125.63 71.7447V77.5292C125.63 80.6681 124.778 83.2241 123.074 85.1971C121.37 87.1701 119.397 88.1566 117.155 88.1566C115.451 88.1566 114.061 87.5737 112.985 86.4078C111.909 85.1522 111.371 83.2689 111.371 80.7578C111.371 78.0673 112.088 76.0046 113.523 74.5697ZM79.7305 104.972H48.9245L34.396 68.2471L27.6698 72.8209V104.972H0.0924072V8.92212H27.6698V50.6245C28.5666 48.5618 29.7325 46.4991 31.1674 44.4364C32.6023 42.284 33.813 40.2213 34.7995 38.2483L50.9424 8.92212H80.6721L54.0364 51.9697L79.7305 104.972ZM386.641 411.658C383.533 409.142 378.698 407.884 372.137 407.884H357.559V460.72H364.219V438.89H374.727L387.529 460.72H395.299L380.795 437.04C382.571 436.448 384.248 435.584 385.827 434.45C387.455 433.315 388.787 431.81 389.823 429.936C390.859 428.061 391.377 425.718 391.377 422.906C391.377 417.874 389.798 414.124 386.641 411.658ZM364.219 413.656H371.767C376.108 413.656 379.315 414.396 381.387 415.876C383.459 417.306 384.495 419.748 384.495 423.202C384.495 426.507 383.508 429.023 381.535 430.75C379.561 432.427 376.429 433.266 372.137 433.266H364.219V413.656ZM345.966 460.72H316.44V407.884H345.966V413.73H323.1V430.232H344.634V436.004H323.1V454.874H345.966V460.72ZM542.121 396.72H548.781V343.884H542.121V366.232H515.037V343.884H508.377V396.72H515.037V372.078H542.121V396.72ZM477.559 343.884C484.465 343.884 489.497 345.24 492.655 347.954C495.812 350.667 497.391 354.49 497.391 359.424C497.391 362.334 496.725 365.072 495.393 367.638C494.11 370.154 491.915 372.201 488.807 373.78C485.748 375.358 481.579 376.148 476.301 376.148H470.233V396.72H463.573V343.884H477.559ZM476.967 349.582H470.233V370.45H475.561C480.593 370.45 484.342 369.636 486.809 368.008C489.275 366.38 490.509 363.617 490.509 359.72C490.509 356.316 489.398 353.775 487.179 352.098C485.008 350.42 481.604 349.582 476.967 349.582ZM443.099 380.366L449.463 396.72H456.345L435.773 343.662H429.779L409.133 396.72H415.867L422.157 380.366H443.099ZM435.181 358.462L441.101 374.446H424.377L430.371 358.462C430.667 357.623 431.012 356.488 431.407 355.058C431.851 353.578 432.27 352.073 432.665 350.544C432.862 351.136 433.109 351.999 433.405 353.134C433.75 354.219 434.095 355.28 434.441 356.316C434.786 357.352 435.033 358.067 435.181 358.462ZM384.856 343.884C391.417 343.884 396.252 345.142 399.36 347.658C402.517 350.124 404.096 353.874 404.096 358.906C404.096 361.718 403.578 364.061 402.542 365.936C401.506 367.81 400.174 369.315 398.546 370.45C396.967 371.584 395.29 372.448 393.514 373.04L408.018 396.72H400.248L387.446 374.89H376.938V396.72H370.278V343.884H384.856ZM384.486 349.656H376.938V369.266H384.856C389.148 369.266 392.28 368.427 394.254 366.75C396.227 365.023 397.214 362.507 397.214 359.202C397.214 355.748 396.178 353.306 394.106 351.876C392.034 350.396 388.827 349.656 384.486 349.656ZM357.658 368.822H339.38V374.742H350.998V390.43C349.666 390.775 348.186 391.071 346.558 391.318C344.93 391.564 342.956 391.688 340.638 391.688C335.902 391.688 332.078 390.8 329.168 389.024C326.257 387.198 324.111 384.682 322.73 381.476C321.398 378.22 320.732 374.495 320.732 370.302C320.732 363.74 322.483 358.56 325.986 354.762C329.538 350.914 334.471 348.99 340.786 348.99C343.302 348.99 345.719 349.31 348.038 349.952C350.406 350.544 352.527 351.234 354.402 352.024L356.918 346.252C354.648 345.265 352.182 344.5 349.518 343.958C346.903 343.415 344.116 343.144 341.156 343.144C335.384 343.144 330.45 344.278 326.356 346.548C322.261 348.768 319.128 351.925 316.958 356.02C314.836 360.065 313.776 364.826 313.776 370.302C313.776 375.876 314.738 380.711 316.662 384.806C318.635 388.851 321.496 391.984 325.246 394.204C328.995 396.374 333.608 397.46 339.084 397.46C342.784 397.46 346.089 397.238 349 396.794C351.91 396.35 354.796 395.659 357.658 394.722V368.822ZM557.442 306.228C557.442 311.704 556.505 316.489 554.63 320.584C552.805 324.629 550.067 327.786 546.416 330.056C542.815 332.325 538.375 333.46 533.096 333.46C527.62 333.46 523.057 332.325 519.406 330.056C515.805 327.786 513.116 324.604 511.34 320.51C509.564 316.415 508.676 311.63 508.676 306.154C508.676 300.776 509.564 296.065 511.34 292.02C513.116 287.925 515.805 284.743 519.406 282.474C523.057 280.204 527.645 279.07 533.17 279.07C538.449 279.07 542.889 280.204 546.49 282.474C550.091 284.694 552.805 287.851 554.63 291.946C556.505 295.991 557.442 300.752 557.442 306.228ZM515.706 306.228C515.706 312.888 517.112 318.142 519.924 321.99C522.736 325.788 527.127 327.688 533.096 327.688C539.065 327.688 543.431 325.788 546.194 321.99C549.006 318.142 550.412 312.888 550.412 306.228C550.412 299.568 549.031 294.363 546.268 290.614C543.505 286.815 539.139 284.916 533.17 284.916C527.151 284.916 522.736 286.815 519.924 290.614C517.112 294.363 515.706 299.568 515.706 306.228ZM481.73 332.72H488.39V285.73H504.818V279.884H465.228V285.73H481.73V332.72ZM462.196 306.228C462.196 311.704 461.259 316.489 459.384 320.584C457.559 324.629 454.821 327.786 451.17 330.056C447.569 332.325 443.129 333.46 437.85 333.46C432.374 333.46 427.811 332.325 424.16 330.056C420.559 327.786 417.87 324.604 416.094 320.51C414.318 316.415 413.43 311.63 413.43 306.154C413.43 300.776 414.318 296.065 416.094 292.02C417.87 287.925 420.559 284.743 424.16 282.474C427.811 280.204 432.399 279.07 437.924 279.07C443.203 279.07 447.643 280.204 451.244 282.474C454.845 284.694 457.559 287.851 459.384 291.946C461.259 295.991 462.196 300.752 462.196 306.228ZM420.46 306.228C420.46 312.888 421.866 318.142 424.678 321.99C427.49 325.788 431.881 327.688 437.85 327.688C443.819 327.688 448.185 325.788 450.948 321.99C453.76 318.142 455.166 312.888 455.166 306.228C455.166 299.568 453.785 294.363 451.022 290.614C448.259 286.815 443.893 284.916 437.924 284.916C431.905 284.916 427.49 286.815 424.678 290.614C421.866 294.363 420.46 299.568 420.46 306.228ZM394.988 332.72H401.648V279.884H394.988V302.232H367.904V279.884H361.244V332.72H367.904V308.078H394.988V332.72ZM330.426 279.884C337.332 279.884 342.364 281.24 345.522 283.954C348.679 286.667 350.258 290.49 350.258 295.424C350.258 298.334 349.592 301.072 348.26 303.638C346.977 306.154 344.782 308.201 341.674 309.78C338.615 311.358 334.446 312.148 329.168 312.148H323.1V332.72H316.44V279.884H330.426ZM329.834 285.582H323.1V306.45H328.428C333.46 306.45 337.209 305.636 339.676 304.008C342.142 302.38 343.376 299.617 343.376 295.72C343.376 292.316 342.266 289.775 340.046 288.098C337.875 286.42 334.471 285.582 329.834 285.582ZM323.323 195.747C321.619 196.195 319.646 196.42 317.403 196.42C315.52 196.42 314.085 195.837 313.099 194.671C312.202 193.415 311.753 191.577 311.753 189.155V160.233H327.762V140.996H311.753V126.064H293.862L287.136 141.668L276.239 149.74V160.233H284.445V190.904C284.445 197.63 285.387 202.877 287.27 206.643C289.243 210.32 291.978 212.921 295.476 214.446C299.063 215.97 303.234 216.733 307.987 216.733C313.099 216.733 317.09 216.329 319.959 215.522C322.919 214.715 325.878 213.728 328.838 212.562V193.864C326.865 194.581 325.026 195.209 323.323 195.747ZM267.486 192.518C267.486 197.182 266.544 201.352 264.661 205.029C262.867 208.706 259.818 211.576 255.513 213.639C251.208 215.701 245.334 216.733 237.89 216.733C232.779 216.733 228.115 216.419 223.9 215.791C219.775 215.253 215.515 214.177 211.12 212.562V191.98C215.963 194.133 220.716 195.702 225.38 196.689C230.133 197.585 233.631 198.034 235.873 198.034C238.115 198.034 239.729 197.72 240.715 197.092C241.792 196.464 242.33 195.523 242.33 194.267C242.33 193.191 241.837 192.249 240.85 191.442C239.863 190.635 238.294 189.738 236.142 188.752C233.989 187.765 231.075 186.42 227.398 184.716C223.81 183.012 220.806 181.174 218.385 179.201C215.963 177.138 214.125 174.716 212.869 171.936C211.613 169.066 210.986 165.614 210.986 161.578C210.986 154.314 213.721 148.843 219.192 145.166C224.662 141.489 231.837 139.651 240.715 139.651C245.469 139.651 249.908 140.189 254.033 141.265C258.248 142.341 262.598 143.91 267.082 145.973L260.087 162.52C257.755 161.354 255.289 160.367 252.688 159.56C250.177 158.753 247.845 158.125 245.693 157.677C243.63 157.228 242.061 157.004 240.985 157.004C239.55 157.004 238.429 157.273 237.621 157.811C236.814 158.349 236.411 159.112 236.411 160.098C236.411 160.995 236.769 161.802 237.487 162.52C238.204 163.237 239.55 164.089 241.523 165.076C243.585 165.972 246.5 167.228 250.267 168.842C254.392 170.546 257.71 172.429 260.221 174.492C262.733 176.465 264.571 178.887 265.737 181.756C266.903 184.537 267.486 188.124 267.486 192.518ZM191.652 146.108C187.078 141.803 181.204 139.651 174.03 139.651C170.532 139.651 167.438 140.099 164.747 140.996C162.147 141.893 159.86 143.193 157.887 144.897C155.914 146.511 154.165 148.484 152.64 150.816H151.833L148.066 140.996H127.753V215.387H154.927V182.833C154.927 175.389 155.555 169.694 156.81 165.748C158.066 161.802 160.622 159.829 164.478 159.829C166.989 159.829 168.783 161.085 169.859 163.596C170.935 166.107 171.474 169.829 171.474 174.761V215.387H198.647V166.959C198.647 157.363 196.316 150.412 191.652 146.108ZM111.581 139.651C113.106 139.651 114.63 139.74 116.155 139.92C117.769 140.099 118.89 140.278 119.518 140.458L116.962 164.672C116.065 164.493 114.944 164.313 113.599 164.134C112.343 163.954 110.236 163.865 107.276 163.865C106.29 163.865 105.079 164.044 103.644 164.403C102.209 164.672 100.774 165.3 99.3394 166.286C97.9942 167.273 96.8283 168.752 95.8418 170.725C94.945 172.699 94.4966 175.389 94.4966 178.797V215.387H67.3228V140.996H87.3668L91.6715 152.834H93.0168C94.2723 150.412 95.8866 148.215 97.8596 146.242C99.8327 144.179 101.985 142.565 104.317 141.399C106.738 140.233 109.16 139.651 111.581 139.651ZM0.0924072 215.387H54.5745V194.267H27.5353V176.106H52.5567V155.255H27.5353V140.189H54.5745V119.337H0.0924072V215.387Z" fill="white"/>
</svg>
