<svg width="48" height="48" viewBox="0 0 48 48" fill="none" xmlns="http://www.w3.org/2000/svg">
<g clip-path="url(#clip0_644_2)">
<circle cx="24" cy="24" r="24" fill="#080808"/>
<path d="M13.2422 9.06449L17.2978 9.06449L17.2978 14.898L22.8581 14.898L22.8581 9.06449L24.0005 9.06449L25.1112 9.06449L25.1112 14.898L30.7031 14.898L30.7031 9.06449L34.7588 9.06448L34.7588 22.8799L24.0007 22.8799L13.2422 22.8799L13.2422 9.06449Z" fill="url(#paint0_linear_644_2)"/>
<path d="M13.2422 33.2081L34.7588 33.2081L34.7588 38.9355L13.2422 38.9355L13.2422 33.2081ZM13.2422 24.1835L23.9818 30.7632L34.7588 24.1835L34.7588 25.9551L23.9818 32.5254L13.2422 25.9551L13.2422 24.1835Z" fill="url(#paint1_linear_644_2)"/>
</g>
<defs>
<linearGradient id="paint0_linear_644_2" x1="39.1247" y1="-2.80536" x2="35.2612" y2="19.7044" gradientUnits="userSpaceOnUse">
<stop stop-color="#FF0000"/>
<stop offset="1" stop-color="#7000FF"/>
</linearGradient>
<linearGradient id="paint1_linear_644_2" x1="39.1223" y1="11.8386" x2="31.9632" y2="42.0927" gradientUnits="userSpaceOnUse">
<stop stop-color="#FF0000"/>
<stop offset="1" stop-color="#7000FF"/>
</linearGradient>
<clipPath id="clip0_644_2">
<rect width="48" height="48" fill="white"/>
</clipPath>
</defs>
</svg>
